<?xml version="1.0" encoding="UTF-8" standalone="no"?>
<svg
   xmlns:dc="http://purl.org/dc/elements/1.1/"
   xmlns:cc="http://creativecommons.org/ns#"
   xmlns:rdf="http://www.w3.org/1999/02/22-rdf-syntax-ns#"
   xmlns:svg="http://www.w3.org/2000/svg"
   xmlns="http://www.w3.org/2000/svg"
   xmlns:sodipodi="http://sodipodi.sourceforge.net/DTD/sodipodi-0.dtd"
   xmlns:inkscape="http://www.inkscape.org/namespaces/inkscape"
   aria-hidden="true"
   focusable="false"
   data-prefix="fas"
   data-icon="flag"
   class="svg-inline--fa fa-flag fa-w-16"
   role="img"
   viewBox="0 0 512 512"
   version="1.1"
   id="svg12"
   sodipodi:docname="flag-solid-g.svg"
   inkscape:version="1.0.2 (e86c8708, 2021-01-15)">
  <metadata
     id="metadata18">
    <rdf:RDF>
      <cc:Work
         rdf:about="">
        <dc:format>image/svg+xml</dc:format>
        <dc:type
           rdf:resource="http://purl.org/dc/dcmitype/StillImage" />
        <dc:title></dc:title>
      </cc:Work>
    </rdf:RDF>
  </metadata>
  <defs
     id="defs16" />
  <sodipodi:namedview
     pagecolor="#ffffff"
     bordercolor="#666666"
     borderopacity="1"
     objecttolerance="10"
     gridtolerance="10"
     guidetolerance="10"
     inkscape:pageopacity="0"
     inkscape:pageshadow="2"
     inkscape:window-width="1330"
     inkscape:window-height="933"
     id="namedview14"
     showgrid="false"
     inkscape:zoom="1.4355469"
     inkscape:cx="256"
     inkscape:cy="256"
     inkscape:window-x="0"
     inkscape:window-y="25"
     inkscape:window-maximized="0"
     inkscape:current-layer="svg12" />
  <path
     fill="currentColor"
     d="M349.565 98.783C295.978 98.783 251.721 64 184.348 64c-24.955 0-47.309 4.384-68.045 12.013a55.947 55.947 0 0 0 3.586-23.562C118.117 24.015 94.806 1.206 66.338.048 34.345-1.254 8 24.296 8 56c0 19.026 9.497 35.825 24 45.945V488c0 13.255 10.745 24 24 24h16c13.255 0 24-10.745 24-24v-94.4c28.311-12.064 63.582-22.122 114.435-22.122 53.588 0 97.844 34.783 165.217 34.783 48.169 0 86.667-16.294 122.505-40.858C506.84 359.452 512 349.571 512 339.045v-243.1c0-23.393-24.269-38.87-45.485-29.016-34.338 15.948-76.454 31.854-116.95 31.854z"
     id="path10" />
  <path
     style="fill:#00ff00;stroke:none;stroke-width:0.696599"
     d="m 49.657758,510.66866 c -7.377602,-2.37493 -12.910856,-7.41238 -15.693002,-14.28685 l -1.572919,-3.88657 -0.182582,-195.2109 -0.182583,-195.2109 -6.851617,-6.802709 C 19.081425,89.220605 17.926228,87.658858 14.732948,81.153741 9.7834033,71.070887 8.7381404,66.698333 8.7381404,56.07619 c 0,-12.125917 2.4703236,-20.758665 8.6127966,-30.098119 C 28.493517,9.0360999 47.84852,-0.78609701 67.42926,0.56453078 91.663416,2.236139 111.9995,19.337993 118.11481,43.189116 c 1.8742,7.309797 1.7185,19.229884 -0.34845,26.676231 -0.88216,3.17805 -1.46196,5.920231 -1.28846,6.09374 0.17351,0.173502 2.64105,-0.486351 5.48341,-1.466347 16.89977,-5.826731 36.17833,-9.211503 56.01964,-9.835473 29.04812,-0.913505 50.32395,2.941093 92.99592,16.84832 38.28854,12.478617 51.11814,15.676889 68.79973,17.150969 31.52511,2.628194 70.89413,-6.541013 118.5853,-27.619001 13.51594,-5.973617 15.55402,-6.593145 21.70665,-6.598296 8.71066,-0.0073 16.50795,3.42901 22.7451,10.023882 4.88772,5.168045 7.62188,11.130344 8.52492,18.590031 0.46436,3.835946 0.64125,48.263018 0.51149,128.465198 l -0.19836,122.60136 -1.59371,4.69676 c -2.64778,7.80321 -6.76608,12.48362 -17.01367,19.33589 -40.06649,26.79132 -79.27486,38.70428 -123.11817,37.40784 -26.48293,-0.7831 -43.3034,-4.45631 -89.82968,-19.61676 -38.15701,-12.43336 -49.09082,-14.59377 -73.55497,-14.5338 -37.494,0.0919 -70.49503,6.04906 -102.20835,18.45004 l -8.864118,3.46617 -0.191663,50.62958 -0.191655,50.62958 -1.939435,3.68094 c -2.587481,4.91088 -6.747651,8.9455 -11.541169,11.19287 -3.746956,1.7567 -4.531632,1.85195 -16.473137,1.99967 -9.021117,0.11159 -13.362291,-0.11 -15.474215,-0.78985 z"
     id="path20" />
</svg>
