<?xml version="1.0" standalone="no"?>
<!DOCTYPE svg PUBLIC "-//W3C//DTD SVG 20010904//EN"
 "http://www.w3.org/TR/2001/REC-SVG-20010904/DTD/svg10.dtd">
<svg version="1.0" xmlns="http://www.w3.org/2000/svg"
 width="246.000000pt" height="246.000000pt" viewBox="0 0 246.000000 246.000000"
 preserveAspectRatio="xMidYMid meet">
<metadata>
Created by potrace 1.11, written by Peter Selinger 2001-2013
</metadata>
<g transform="translate(0.000000,246.000000) scale(0.100000,-0.100000)"
fill="#000000" stroke="none">
<path d="M980 2123 c-68 -18 -198 -78 -273 -126 -142 -91 -293 -273 -362 -435
-60 -144 -70 -198 -69 -392 0 -161 2 -182 27 -263 84 -272 266 -491 512 -614
51 -26 186 -70 247 -82 l46 -8 7 36 c4 19 16 48 26 63 l20 28 -39 52 c-63 84
-113 200 -146 339 l-6 27 218 -5 c119 -3 250 -1 291 4 l73 10 -6 -37 c-17
-108 -91 -277 -152 -348 -30 -35 -32 -41 -18 -53 21 -17 44 -64 44 -89 0 -19
4 -21 33 -15 311 62 593 300 711 602 49 126 61 198 60 368 -1 190 -17 264 -93
420 -99 201 -248 353 -446 452 -58 29 -212 83 -239 83 -6 0 -20 -17 -29 -39
-9 -21 -26 -46 -37 -56 -19 -17 -19 -18 14 -59 62 -75 138 -254 161 -379 7
-38 7 -38 -21 -30 -16 4 -149 8 -297 8 -241 0 -267 2 -267 16 0 33 51 192 84
262 19 40 50 90 70 113 l35 41 -29 28 c-17 16 -35 44 -42 62 -14 38 -24 39
-108 16z m52 -110 c-59 -83 -126 -256 -152 -391 -11 -55 -16 -63 -39 -68 -166
-37 -305 -89 -394 -149 -37 -25 -67 -40 -67 -34 0 26 54 170 86 228 99 181
263 328 446 400 99 39 100 39 121 40 17 1 17 0 -1 -26z m614 -43 c228 -114
386 -303 458 -548 l15 -52 -42 28 c-85 59 -199 106 -327 137 -41 10 -80 22
-86 26 -6 5 -14 29 -17 53 -14 103 -95 312 -150 390 l-21 29 35 -6 c19 -4 79
-29 135 -57z m-104 -486 l37 -6 8 -67 c10 -81 7 -426 -4 -501 -8 -53 -9 -54
-48 -64 -49 -12 -472 -14 -537 -3 -47 8 -47 8 -55 55 -13 75 -10 559 3 572 20
20 145 29 354 24 113 -2 222 -7 242 -10z m-692 -31 c0 -5 -5 -66 -10 -138 -7
-87 -6 -181 1 -284 6 -84 8 -155 6 -158 -7 -7 -124 26 -208 58 -204 79 -298
194 -244 298 36 71 185 159 345 205 92 27 110 30 110 19z m955 -31 c103 -32
205 -83 256 -129 126 -114 80 -236 -125 -334 -71 -34 -254 -94 -262 -86 -2 1
2 52 8 112 10 110 5 425 -8 458 -8 21 2 19 131 -21z m-1211 -573 c45 -17 123
-42 175 -55 52 -13 96 -26 98 -28 2 -2 15 -46 29 -97 32 -122 76 -233 120
-299 19 -29 33 -55 30 -57 -11 -12 -171 52 -252 100 -187 111 -337 303 -398
507 l-15 49 67 -45 c36 -24 102 -58 146 -75z m1497 40 c-63 -185 -192 -349
-359 -459 -72 -47 -223 -115 -243 -108 -4 2 6 26 23 53 44 70 76 152 113 284
l32 113 94 24 c123 31 213 66 291 113 34 22 64 38 66 37 1 -2 -6 -27 -17 -57z"/>
<path d="M1210 1401 c-113 -37 -175 -119 -174 -232 0 -53 5 -74 28 -113 87
-149 297 -162 396 -24 108 149 10 360 -174 374 -28 2 -62 0 -76 -5z"/>
</g>
</svg>
